<?xml version="1.0" standalone="no"?>
<!DOCTYPE svg PUBLIC "-//W3C//DTD SVG 20010904//EN"
 "http://www.w3.org/TR/2001/REC-SVG-20010904/DTD/svg10.dtd">
<svg version="1.0" xmlns="http://www.w3.org/2000/svg"
 width="3000.000000pt" height="2000.000000pt" viewBox="0 0 3000.000000 2000.000000"
 preserveAspectRatio="xMidYMid meet">

<g transform="translate(0.000000,2000.000000) scale(0.100000,-0.100000)"
fill="#000000" stroke="none">
<path d="M4375 12245 c-249 -41 -411 -119 -561 -269 -79 -79 -98 -106 -143
-196 -64 -129 -91 -248 -91 -400 0 -353 136 -583 424 -716 108 -49 233 -78
514 -119 284 -41 330 -52 398 -98 151 -100 175 -356 48 -497 -99 -109 -327
-160 -583 -131 -204 24 -351 79 -485 180 l-69 53 -181 -182 -181 -181 60 -56
c167 -154 375 -251 640 -299 141 -25 445 -30 584 -10 435 64 727 292 823 642
31 115 31 351 -1 479 -71 288 -250 462 -562 545 -43 11 -196 38 -340 60 -274
40 -342 58 -422 111 -122 81 -159 246 -88 395 72 153 244 225 498 210 189 -11
332 -58 450 -148 l63 -47 177 173 178 174 -20 22 c-40 45 -180 142 -264 184
-102 52 -215 89 -337 111 -126 23 -415 28 -529 10z"/>
<path d="M5990 10785 l0 -1455 260 0 260 0 0 648 c0 356 5 680 10 720 12 90
36 146 86 202 125 138 383 138 508 0 50 -56 74 -112 86 -202 5 -40 10 -364 10
-720 l0 -648 260 0 261 0 -3 788 c-4 787 -4 787 -26 862 -76 247 -242 416
-467 476 -97 25 -247 29 -345 10 -104 -21 -224 -78 -308 -145 -34 -28 -64 -51
-67 -51 -3 0 -5 218 -5 485 l0 485 -260 0 -260 0 0 -1455z"/>
<path d="M11520 10785 l0 -1456 583 4 c541 3 588 5 672 24 114 26 226 69 318
124 89 52 219 182 270 269 82 142 136 338 157 570 13 150 13 838 0 971 -48
480 -248 762 -633 888 -151 50 -186 53 -794 58 l-573 5 0 -1457z m1185 1147
c240 -66 395 -211 464 -436 41 -133 51 -270 51 -685 0 -419 -9 -554 -46 -701
-57 -229 -178 -369 -382 -447 -123 -46 -188 -52 -589 -53 l-373 0 0 1176 0
1175 398 -3 c371 -4 402 -6 477 -26z"/>
<path d="M26372 12213 c-10 -16 -578 -997 -1262 -2180 l-1242 -2153 -6174 0
-6174 0 0 -70 0 -70 6213 0 6214 0 1286 2233 c707 1227 1289 2240 1292 2250 6
15 0 17 -63 17 -66 0 -72 -2 -90 -27z"/>
<path d="M8210 12020 l0 -210 270 0 270 0 0 210 0 210 -270 0 -270 0 0 -210z"/>
<path d="M10130 11465 c-132 -29 -244 -84 -329 -161 l-51 -46 0 101 0 101
-255 0 -255 0 0 -1065 0 -1065 260 0 260 0 0 643 c0 353 5 675 10 716 23 175
128 287 290 309 171 24 309 -47 377 -193 l28 -60 3 -707 3 -708 265 0 265 0
-4 778 c-3 691 -5 784 -20 840 -70 260 -242 441 -482 507 -84 23 -283 29 -365
10z"/>
<path d="M8220 10395 l0 -1065 260 0 260 0 0 1065 0 1065 -260 0 -260 0 0
-1065z"/>
<path d="M14463 11350 c-198 -36 -381 -158 -492 -329 -118 -184 -182 -475
-168 -766 22 -436 168 -716 442 -851 148 -73 220 -88 430 -88 142 -1 197 3
259 18 149 34 269 99 406 216 l73 64 -44 39 c-24 22 -69 61 -99 87 l-56 48
-69 -59 c-127 -107 -243 -154 -412 -165 -216 -14 -403 64 -509 211 -75 106
-113 225 -129 408 l-7 77 683 0 682 0 -6 153 c-10 239 -39 372 -118 533 -92
189 -257 326 -461 385 -83 24 -316 35 -405 19z m307 -257 c226 -62 366 -261
382 -545 l4 -68 -533 0 -533 0 5 38 c2 20 7 66 10 101 4 36 17 98 30 138 85
268 357 412 635 336z"/>
<path d="M16451 11349 c-130 -25 -254 -87 -346 -171 l-65 -60 0 111 0 111
-145 0 -145 0 0 -1005 0 -1005 145 0 144 0 4 688 c3 750 2 727 63 848 31 61
120 151 180 182 66 34 156 52 255 52 149 0 254 -36 340 -116 57 -54 89 -103
121 -190 23 -59 23 -62 26 -761 l3 -703 149 0 150 0 0 644 c0 670 -6 797 -41
914 -56 182 -169 318 -330 395 -54 26 -127 52 -171 61 -83 17 -263 20 -337 5z"/>
<path d="M18200 11345 c-325 -65 -503 -303 -550 -732 -18 -163 -8 -528 18
-654 41 -196 109 -337 211 -440 66 -65 137 -107 246 -145 75 -27 90 -28 245
-29 143 0 174 3 235 22 94 30 181 84 261 163 l66 65 -5 -190 c-6 -207 -16
-262 -69 -371 -88 -181 -254 -274 -488 -274 -170 0 -281 40 -419 152 l-58 46
-94 -94 -93 -94 34 -30 c64 -54 179 -130 242 -160 172 -80 421 -99 635 -50
260 61 456 236 547 488 56 157 56 154 56 1284 l0 1039 -142 -3 -143 -3 -3
-112 -3 -111 -73 72 c-126 125 -270 177 -483 175 -59 0 -137 -7 -173 -14z
m362 -256 c29 -6 79 -25 111 -41 176 -94 257 -312 257 -695 0 -234 -28 -398
-88 -522 -32 -66 -111 -150 -170 -180 -91 -47 -249 -64 -364 -40 -217 46 -333
210 -369 522 -15 126 -6 443 15 542 50 238 149 361 329 410 63 17 207 19 279
4z"/>
<path d="M20179 11346 c-201 -42 -369 -157 -478 -326 -206 -322 -226 -942 -40
-1300 78 -150 175 -247 324 -320 136 -68 212 -83 420 -84 196 -1 282 12 400
61 78 33 205 116 279 184 l59 54 -79 70 c-44 38 -88 77 -99 86 -19 17 -22 16
-89 -41 -126 -108 -242 -155 -410 -166 -364 -23 -602 194 -635 577 -5 57 -7
107 -4 112 2 4 308 7 680 7 l676 0 -6 163 c-13 336 -90 550 -262 722 -90 91
-189 149 -315 185 -96 28 -321 36 -421 16z m306 -248 c128 -27 272 -142 330
-263 33 -71 62 -188 69 -282 l5 -73 -533 0 -532 0 4 68 c23 399 294 627 657
550z"/>
<path d="M22201 11350 c-134 -28 -260 -91 -348 -174 l-63 -58 0 111 0 111
-145 0 -145 0 0 -1005 0 -1005 145 0 145 0 0 663 c0 728 2 744 61 864 78 160
227 243 434 243 97 0 182 -17 255 -52 63 -31 151 -122 184 -191 54 -116 56
-135 56 -859 l0 -668 145 0 145 0 0 705 c0 755 -2 782 -52 909 -76 193 -238
337 -443 392 -70 19 -308 28 -374 14z"/>
</g>
</svg>
